<?xml version="1.0" encoding="UTF-8" standalone="no"?>
<svg
   xmlns:dc="http://purl.org/dc/elements/1.1/"
   xmlns:cc="http://creativecommons.org/ns#"
   xmlns:rdf="http://www.w3.org/1999/02/22-rdf-syntax-ns#"
   xmlns:svg="http://www.w3.org/2000/svg"
   xmlns="http://www.w3.org/2000/svg"
   viewBox="0 0 289.44 289.44"
   version="1.1"
   id="svg17"
   width="289.44"
   height="289.44">
  <metadata
     id="metadata21">
    <rdf:RDF>
      <cc:Work
         rdf:about="">
        <dc:format>image/svg+xml</dc:format>
        <dc:type
           rdf:resource="http://purl.org/dc/dcmitype/StillImage" />
        <dc:title></dc:title>
      </cc:Work>
    </rdf:RDF>
  </metadata>
  <defs
     id="defs4">
    <style
       id="style2">.cls-1,.cls-3{fill:#dc6c1b;}.cls-2{font-size:73.37px;fill:#545454;font-family:Kalam-Bold, Kalam;font-weight:700;}.cls-3{font-size:30.01px;font-family:OpenSans-SemiBold, Open Sans;font-weight:600;letter-spacing:0.2em;}</style>
  </defs>
  <g
     id="g858"
     transform="matrix(1.6368324,0,0,1.6368324,-172.96851,9.0822785)">
    <path
       class="cls-1"
       d="m 137.73,32.72 a 1.88,1.88 0 0 0 1.69,2.9 9.94,9.94 0 0 1 3.07,0.43 9.79,9.79 0 0 1 2.79,1.36 1.89,1.89 0 0 0 3,-1.47 c 0.17,-3.14 -1.28,-5.89 -3.76,-6.64 -2.48,-0.75 -5.18,0.72 -6.79,3.42 z"
       id="path6" />
    <path
       class="cls-1"
       d="m 241.52,38.4 a 9.74,9.74 0 0 1 3,-0.63 10,10 0 0 1 3.08,0.33 1.89,1.89 0 0 0 2.36,-2.4 c -0.9,-3 -3.2,-5.11 -5.78,-5 -2.58,0.11 -4.66,2.43 -5.27,5.52 a 1.89,1.89 0 0 0 2.61,2.18 z"
       id="path8" />
    <g
       id="g852">
      <path
         class="cls-1"
         d="m 280.2,158.89 a 14.32,14.32 0 0 0 2.25,-7.7 c 0,-7.68 -6,-14.62 -16.49,-15.33 a 3.4,3.4 0 0 0 -0.46,-0.09 C 251.43,121.34 244.98,86.4 248.8,65.4 c 12.81,-1 21.81,-8.52 25.18,-21.36 1.49,-5.68 -1.15,-10.05 -6.61,-11.09 a 6.84,6.84 0 0 1 -5.44,-4.86 c 0,-0.09 -0.07,-0.17 -0.11,-0.26 -5.16,-11.45 -14.1,-12.87 -20,-13.39 0,0 0,-0.07 0,-0.07 -2.14,0.13 -4.8,0.12 -3.38,-1.46 3.78,-4.19 4.45,-6.18 4.88,-7.7 1,-3.37 -2.61,-5.58 -5.29,-5.13 -14.72,2.43 -29.15,15.58 -36.78,33.4 -1,2.33 -2.69,6.33 -4.81,11.46 -2.69,-6.47 -8.18,-22.05 -24,-30.25 A 38.7,38.7 0 0 0 151.5,10.4 c -6,0.36 -18.37,1.12 -25.06,16.1 -0.2,0.21 -1.83,1.59 -8.87,2.34 a 78.18,78.18 0 0 1 -8.36,0.42 v 0 a 3.42,3.42 0 0 0 -3.48,3.34 c -0.25,19.43 8.5,27.89 15.07,31.49 v 0 c 4,2.38 8.95,2.94 13.59,2.94 2.51,0 4.8,-0.16 6.51,-0.33 1.28,8.12 3.67,41 -12.59,69.15 -10.43,0.77 -16.31,7.72 -16.31,15.32 a 14.25,14.25 0 0 0 2.26,7.7 c 0,0 3.69,6.84 14.95,6.84 h 36.82 a 3.42,3.42 0 1 0 0,-6.84 h -37.91 c -6.38,0 -9.23,-3.87 -9.23,-7.7 0,-4.88 4.26,-8.32 10.81,-8.53 3,0.67 6.64,2.37 8.13,6.63 a 3.4219585,3.4219585 0 1 0 6.46,-2.26 16.4,16.4 0 0 0 -8.93,-9.67 c 15.24,-27.82 14.09,-59.9 12.42,-70.87 a 29.27,29.27 0 0 0 -1.26,-4.93 3.41,3.41 0 0 0 -3.67,-2 c -3,0.48 -11.08,1.33 -16.68,-0.55 -0.17,0 -0.32,-0.11 -0.48,-0.17 -6.13,-2.67 -10.19,-7.92 -12,-15.42 2.23,-0.51 5.44,-2.32 7.54,-8.23 6.46,-1 10.12,-2.92 11.45,-5.9 3.15,-7.12 7.65,-10 12.62,-11.26 2.57,-0.64 9.2,-1.53 14.83,2.24 a 9.68,9.68 0 0 1 3.61,5 c 1.27,3.68 0.35,7.8 -2.6,11.59 -7.63,9.82 -9.56,14.84 -8.85,21.35 a 12.05,12.05 0 0 0 6.31,9.49 16.59,16.59 0 0 0 16.46,-0.22 c 5.36,-3.3 8.46,-9.19 10,-19.11 V 48.3 a 46.21,46.21 0 0 0 -5.9,-11.09 33.66,33.66 0 0 1 -0.22,9.94 c -1.64,7.41 -2.67,11.12 -6.84,14.15 a 9.75,9.75 0 0 1 -10.16,0.39 5.24,5.24 0 0 1 -2.82,-4.23 c -0.39,-3.53 0,-6.84 7.45,-16.42 4.69,-6 6.17,-13.69 2.6,-20.44 a 22,22 0 0 1 2.78,1.69 v 0 a 43.12,43.12 0 0 1 9.77,9.46 c 1.45,1.86 6.53,8.55 11.05,22.13 -10.35,25.7 -25.49,66.1 -25.49,82.51 a 29.31,29.31 0 0 0 58.62,0 c 0,-8.89 -5.3,-27.83 -15.73,-56.32 -2.39,-6.51 -4.81,-12.86 -7.08,-18.67 l -3.48,9.9 c 9.15,24 19.44,53.9 19.44,65.09 a 22.46,22.46 0 0 1 -44.92,0 c 0,-17.35 19.46,-66.26 26,-82.43 v 0 c 3.65,-9 6.49,-15.69 7.4,-17.84 4.86,-11.34 14.67,-23.6 26.62,-28 -8.93,8.55 -5.73,13 -2.46,13 h 8.84 c 5.51,0.46 11.25,1.08 15,9.33 a 13.76,13.76 0 0 0 8,8.4 c -0.8,2 -1.42,5.45 2.56,7.25 -3,7.11 -9.61,13.73 -23.91,12.3 a 3.43,3.43 0 0 0 -0.68,6.82 h 0.41 c -1.76,10.92 -1.12,25.21 1.79,38.83 3,14.16 8.15,25.94 14.63,33.83 a 16.19,16.19 0 0 0 -7.73,9.06 3.42,3.42 0 1 0 6.45,2.26 c 1.49,-4.24 5.1,-5.94 8.09,-6.62 14.15,0.67 13.54,16.22 1.27,16.22 h -39.29 a 3.42,3.42 0 0 0 0,6.84 h 39.25 c 10.83,0.09 13.83,-6.75 13.83,-6.75 z"
         id="path10" />
    </g>
  </g>
</svg>
